<mxfile>
    <diagram id="3C0dT3C0I8oeDnNFs6Di" name="Page-1">
        <mxGraphModel dx="728" dy="680" grid="1" gridSize="10" guides="1" tooltips="1" connect="1" arrows="1" fold="1" page="1" pageScale="1" pageWidth="827" pageHeight="1169" math="0" shadow="0">
            <root>
                <mxCell id="0"/>
                <mxCell id="1" parent="0"/>
                <mxCell id="1Y6DSlQU9qymhDtHb6Yh-21" value="Utente" style="shape=umlLifeline;perimeter=lifelinePerimeter;container=1;collapsible=0;recursiveResize=0;rounded=0;shadow=0;strokeWidth=1;" parent="1" vertex="1">
                    <mxGeometry x="20" y="20" width="100" height="370" as="geometry"/>
                </mxCell>
                <mxCell id="1Y6DSlQU9qymhDtHb6Yh-22" value="" style="points=[];perimeter=orthogonalPerimeter;rounded=0;shadow=0;strokeWidth=1;" parent="1Y6DSlQU9qymhDtHb6Yh-21" vertex="1">
                    <mxGeometry x="45" y="70" width="10" height="250" as="geometry"/>
                </mxCell>
                <mxCell id="1Y6DSlQU9qymhDtHb6Yh-25" value="Sistema" style="shape=umlLifeline;perimeter=lifelinePerimeter;container=1;collapsible=0;recursiveResize=0;rounded=0;shadow=0;strokeWidth=1;" parent="1" vertex="1">
                    <mxGeometry x="340" y="20" width="100" height="370" as="geometry"/>
                </mxCell>
                <mxCell id="1Y6DSlQU9qymhDtHb6Yh-26" value="" style="points=[];perimeter=orthogonalPerimeter;rounded=0;shadow=0;strokeWidth=1;" parent="1Y6DSlQU9qymhDtHb6Yh-25" vertex="1">
                    <mxGeometry x="45" y="80" width="10" height="240" as="geometry"/>
                </mxCell>
                <mxCell id="1Y6DSlQU9qymhDtHb6Yh-31" value="SelezionaProfilo()" style="html=1;verticalAlign=bottom;startArrow=oval;startFill=1;endArrow=block;startSize=8;" parent="1" target="1Y6DSlQU9qymhDtHb6Yh-25" edge="1">
                    <mxGeometry width="60" relative="1" as="geometry">
                        <mxPoint x="70" y="110" as="sourcePoint"/>
                        <mxPoint x="140" y="110" as="targetPoint"/>
                        <Array as="points"/>
                    </mxGeometry>
                </mxCell>
                <mxCell id="1Y6DSlQU9qymhDtHb6Yh-61" value="VisualizzaProfilo()" style="html=1;verticalAlign=bottom;endArrow=open;dashed=1;endSize=8;" parent="1" edge="1" source="1Y6DSlQU9qymhDtHb6Yh-25">
                    <mxGeometry y="-10" relative="1" as="geometry">
                        <mxPoint x="240" y="150" as="sourcePoint"/>
                        <mxPoint x="80" y="150" as="targetPoint"/>
                        <mxPoint as="offset"/>
                    </mxGeometry>
                </mxCell>
                <mxCell id="1Y6DSlQU9qymhDtHb6Yh-62" value="CickBottoneBan()" style="html=1;verticalAlign=bottom;startArrow=oval;startFill=1;endArrow=block;startSize=8;" parent="1" edge="1" target="1Y6DSlQU9qymhDtHb6Yh-25">
                    <mxGeometry x="-0.056" y="10" width="60" relative="1" as="geometry">
                        <mxPoint x="70" y="190" as="sourcePoint"/>
                        <mxPoint x="249.5" y="190" as="targetPoint"/>
                        <Array as="points"/>
                        <mxPoint as="offset"/>
                    </mxGeometry>
                </mxCell>
                <mxCell id="1Y6DSlQU9qymhDtHb6Yh-63" value="VisualizzaFormBan()" style="html=1;verticalAlign=bottom;endArrow=open;dashed=1;endSize=8;" parent="1" edge="1" source="1Y6DSlQU9qymhDtHb6Yh-25">
                    <mxGeometry y="-10" relative="1" as="geometry">
                        <mxPoint x="240" y="230" as="sourcePoint"/>
                        <mxPoint x="80" y="230" as="targetPoint"/>
                        <mxPoint as="offset"/>
                    </mxGeometry>
                </mxCell>
                <mxCell id="1Y6DSlQU9qymhDtHb6Yh-66" value="InvioDatiBan()" style="html=1;verticalAlign=bottom;startArrow=oval;startFill=1;endArrow=block;startSize=8;" parent="1" edge="1">
                    <mxGeometry x="-0.056" y="10" width="60" relative="1" as="geometry">
                        <mxPoint x="70" y="270" as="sourcePoint"/>
                        <mxPoint x="390" y="270" as="targetPoint"/>
                        <Array as="points"/>
                        <mxPoint as="offset"/>
                    </mxGeometry>
                </mxCell>
                <mxCell id="1Y6DSlQU9qymhDtHb6Yh-67" value="EsecuzioneRichiestaBan()" style="html=1;verticalAlign=bottom;endArrow=open;dashed=1;endSize=8;" parent="1" edge="1" source="1Y6DSlQU9qymhDtHb6Yh-26">
                    <mxGeometry y="-10" relative="1" as="geometry">
                        <mxPoint x="240" y="310" as="sourcePoint"/>
                        <mxPoint x="80" y="310" as="targetPoint"/>
                        <mxPoint as="offset"/>
                    </mxGeometry>
                </mxCell>
            </root>
        </mxGraphModel>
    </diagram>
</mxfile>